<?xml version="1.0" standalone="no"?>
<!DOCTYPE svg PUBLIC "-//W3C//DTD SVG 20010904//EN"
 "http://www.w3.org/TR/2001/REC-SVG-20010904/DTD/svg10.dtd">
<svg version="1.0" xmlns="http://www.w3.org/2000/svg"
 width="400.000000pt" height="400.000000pt" viewBox="0 0 400.000000 400.000000"
 preserveAspectRatio="xMidYMid meet">
<metadata>
Created by potrace 1.14, written by Peter Selinger 2001-2017
</metadata>
<g transform="translate(0.000000,400.000000) scale(0.100000,-0.100000)"
fill="#000000" stroke="none">
<path d="M1234 2889 c-6 -11 22 -78 44 -102 42 -47 56 -49 384 -49 170 0 311
2 313 4 2 2 -4 22 -14 44 -21 46 -54 81 -91 96 -30 12 -629 19 -636 7z"/>
<path d="M1398 2654 c-9 -8 17 -72 39 -97 37 -40 79 -50 221 -52 75 -2 143 -3
150 -4 10 -1 11 -12 6 -43 -33 -198 78 -347 263 -354 63 -3 79 1 132 27 103
51 154 136 154 254 -1 109 -54 196 -150 245 l-48 25 -380 3 c-209 2 -383 0
-387 -4z m760 -172 c33 -22 50 -60 47 -110 -3 -53 -30 -92 -75 -107 -122 -41
-221 101 -137 196 42 48 111 57 165 21z"/>
<path d="M2669 1915 c-85 -27 -142 -109 -141 -205 2 -108 92 -189 215 -192 77
-2 101 6 153 48 133 108 87 306 -82 353 -50 14 -88 13 -145 -4z m115 -95 c14
-5 32 -20 41 -34 19 -29 28 -93 14 -102 -5 -3 -7 -9 -4 -14 10 -15 -47 -50
-82 -50 -47 0 -72 16 -89 56 -24 56 4 128 56 147 23 8 36 8 64 -3z"/>
<path d="M3115 1915 c-56 -20 -86 -55 -92 -106 -4 -35 0 -50 16 -71 21 -26
113 -68 149 -68 10 0 28 -7 40 -16 51 -36 -31 -57 -123 -31 -53 14 -62 12 -69
-17 -3 -13 -9 -31 -12 -40 -16 -41 195 -68 261 -33 47 24 75 55 76 85 5 85
-15 111 -108 138 -122 35 -130 41 -91 68 22 16 86 13 120 -5 9 -5 19 -9 22 -9
10 0 47 80 41 89 -14 24 -175 34 -230 16z"/>
<path d="M672 1903 c-7 -15 -8 -176 -3 -350 l1 -33 155 0 155 0 0 50 0 50 -93
0 -93 0 -1 123 c-1 198 6 177 -58 177 -42 0 -56 -4 -63 -17z"/>
<path d="M1139 1861 c-12 -31 -25 -60 -29 -66 -4 -5 -26 -55 -50 -110 -23 -55
-48 -112 -55 -127 -7 -15 -10 -29 -7 -32 3 -3 31 -6 63 -6 56 0 58 1 76 37 18
38 18 38 83 38 70 1 100 -8 100 -29 0 -25 35 -43 88 -45 l53 -3 -7 29 c-4 15
-10 33 -14 38 -4 6 -35 77 -70 158 -34 81 -69 154 -76 162 -9 9 -35 13 -73 13
l-60 -1 -22 -56z m115 -118 c22 -63 22 -63 -24 -63 -25 0 -40 5 -40 12 0 20
32 98 40 98 5 0 15 -21 24 -47z"/>
<path d="M1459 1917 c-5 -9 -5 -87 0 -88 3 -1 28 -3 55 -5 27 -2 50 -5 52 -6
1 -2 4 -69 6 -148 l3 -145 63 -3 62 -3 1 133 c1 73 1 141 0 151 -2 17 0 18 84
21 28 1 30 4 33 47 l3 46 -181 1 c-99 0 -180 -1 -181 -1z"/>
<path d="M1879 1901 c0 -9 -2 -98 -2 -198 l-2 -183 63 0 c34 0 62 3 63 8 0 4
2 93 2 199 l2 191 -62 0 c-51 -1 -63 -4 -64 -17z"/>
<path d="M2072 1723 l3 -198 58 -1 57 0 1 35 c1 31 5 98 8 139 1 8 22 -12 48
-45 104 -128 112 -134 165 -132 26 2 49 7 49 13 3 31 5 363 1 372 -2 7 -27 12
-63 12 l-59 0 -1 -62 c-1 -33 -2 -65 -4 -71 -1 -5 -3 -19 -3 -30 -2 -22 -9
-16 -77 71 -68 86 -68 86 -128 91 l-57 4 2 -198z"/>
<path d="M671 1431 c-4 -9 -6 -45 -5 -81 1 -36 2 -86 3 -112 l1 -48 40 0 c38
0 40 2 34 24 -4 19 0 27 18 37 12 7 24 12 26 11 1 -1 14 -2 28 -2 38 0 84 50
84 92 -1 42 -17 64 -64 83 -49 21 -154 18 -165 -4z m133 -54 c23 -17 17 -47
-11 -58 -27 -10 -53 11 -48 38 2 10 4 21 4 26 1 12 36 8 55 -6z"/>
<path d="M1005 1431 c-56 -33 -81 -91 -63 -144 20 -60 67 -95 135 -101 48 -4
85 14 119 60 32 42 35 104 6 144 -42 57 -139 77 -197 41z m119 -63 c34 -49 9
-118 -42 -118 -36 0 -62 27 -62 64 0 36 7 48 35 64 31 17 52 14 69 -10z"/>
<path d="M1270 1320 l0 -131 38 3 c31 2 38 7 40 28 6 42 18 43 53 6 25 -27 42
-36 66 -36 39 0 40 3 12 41 l-20 29 24 42 c20 35 23 49 15 75 -12 45 -54 65
-150 70 l-78 4 0 -131z m141 49 c18 -18 19 -23 8 -35 -8 -7 -25 -15 -39 -16
-20 -2 -26 2 -28 20 -8 53 22 68 59 31z"/>
<path d="M1669 1446 c-3 -5 -4 -233 -1 -243 5 -15 178 -18 200 -4 8 5 12 17
10 27 -3 16 -14 20 -65 22 -45 2 -63 7 -67 19 -9 23 8 30 59 28 33 -2 44 1 48
14 8 32 -4 41 -53 41 -50 0 -74 15 -49 31 8 5 38 9 67 9 51 0 52 1 52 30 l0
29 -100 -1 c-55 0 -100 -1 -101 -2z"/>
<path d="M1919 1432 c-4 -56 2 -154 11 -178 32 -83 179 -91 221 -12 11 21 20
171 11 196 -2 6 -19 12 -38 12 l-34 0 -1 -52 c-3 -139 -6 -148 -49 -148 -33 0
-38 15 -45 125 -1 33 -3 63 -4 66 -1 3 -17 6 -36 7 -27 1 -35 -3 -36 -16z"/>
<path d="M2227 1436 c-11 -12 -14 -96 -8 -234 1 -9 13 -12 38 -10 33 3 37 6
39 31 0 15 3 30 6 32 10 10 33 -5 53 -35 16 -24 27 -30 58 -30 43 0 44 2 16
41 l-20 29 20 29 c13 18 21 45 21 69 0 59 -38 84 -136 88 -52 3 -77 0 -87 -10z
m131 -55 c8 -4 12 -19 10 -32 -2 -19 -10 -25 -35 -27 -18 -2 -34 2 -34 7 -1 6
-2 17 -3 24 -5 30 32 47 62 28z"/>
<path d="M2580 1442 c-32 -14 -69 -44 -74 -59 -39 -101 19 -193 122 -193 92 0
154 56 146 134 -5 56 -19 80 -64 105 -37 21 -99 27 -130 13z m95 -77 c29 -28
32 -61 7 -93 -40 -52 -125 -5 -109 60 15 59 62 74 102 33z"/>
<path d="M2829 1443 c-1 -4 -2 -63 -4 -130 l-1 -123 38 0 c35 0 38 2 38 29 0
30 18 41 72 41 36 0 76 38 83 78 6 39 -18 87 -49 97 -35 10 -176 17 -177 8z
m141 -68 c5 -3 10 -14 10 -25 0 -20 -50 -43 -69 -31 -10 6 -10 41 -2 69 1 4
50 -6 61 -13z"/>
<path d="M3159 1416 c-7 -17 -28 -65 -47 -106 -58 -127 -57 -120 -13 -120 30
0 42 5 55 25 22 34 90 33 122 -2 13 -15 33 -23 53 -23 17 0 31 2 31 4 0 6 -29
76 -55 131 -13 28 -30 66 -38 86 -13 32 -18 35 -55 36 -36 1 -42 -3 -53 -31z
m71 -86 c4 -30 0 -40 -20 -40 -22 0 -26 20 -9 52 11 21 26 15 29 -12z"/>
</g>
</svg>
